# xmcd CD database file
#
# Track frame offsets:
#	150
#	13055
#	25198
#	35773
#	47544
#	58983
#	71390
#	84688
#	99326
#	110410
#	124291
#	137110
#
# Disc length: 1970 seconds
#
# Revision: 0
# Processed by: cddbd v1.5.2PL0 Copyright (c) Steve Scherf et al.
# Submitted via: CDex 1.70beta2
#
DISCID=a507b00c
DTITLE=Ray Charles - The Genius Sings The Blues
DYEAR=1900
DGENRE=Blues
TTITLE0=I Got A Woman
TTITLE1=Mess Around
TTITLE2=Hey Now
TTITLE3=See See Rider
TTITLE4=She's On The Ball
TTITLE5=It Should Have Been Me
TTITLE6=Don't You Know
TTITLE7=Funny But I Still Love You
TTITLE8=A Sentimental Blues
TTITLE9=This Love Of Mine
TTITLE10=Can Anyone Ask For More
TTITLE11=I Wonder Who's Kissing Her Now
EXTD=
EXTT0=
EXTT1=
EXTT2=
EXTT3=
EXTT4=
EXTT5=
EXTT6=
EXTT7=
EXTT8=
EXTT9=
EXTT10=
EXTT11=
PLAYORDER=
